<?xml version="1.0" encoding="UTF-8"?>
<svg width="1280" height="640" version="1.1" viewBox="0 0 1280 640" xmlns="http://www.w3.org/2000/svg">
 <defs>
  <linearGradient id="bgGradient" x2="600" gradientTransform="scale(2 .5)" gradientUnits="userSpaceOnUse">
   <stop stop-color="#1a1f2e" offset="0"/>
   <stop stop-color="#2a3544" offset="1"/>
  </linearGradient>
 </defs>
 <rect width="1280" height="640" fill="url(#bgGradient)"/>
 <g transform="matrix(1.22 0 0 1.22 -15.3 .538)" font-family="Arial, sans-serif">
  <g transform="translate(0 7.07)">
   <g transform="matrix(.45 0 0 .45 70 170)">
    <rect width="452" height="330" rx="84" fill="#5a6575"/>
    <path d="m104 217h244v129c0 18-10 28-28 28h-188c-18 0-28-10-28-28z" fill="#fff" stroke="#5a6575" stroke-width="11"/>
    <g fill="#31d4c4">
     <rect x="129" y="269" width="194" height="14" rx="7"/>
     <rect x="129" y="304" width="138" height="14" rx="7"/>
     <circle cx="314" cy="145" r="15"/>
     <circle cx="138" cy="145" r="15"/>
    </g>
    <path d="m308 104c25 0 45 25 45 43" fill="none" stroke="#31d4c4" stroke-linecap="round" stroke-width="18"/>
    <path d="m308 68c40 0 80 35 80 77" fill="none" stroke="#31d4c4" stroke-linecap="round" stroke-width="18"/>
   </g>
   <text x="330" y="257.24799" fill="#ffffff" font-size="90px" font-weight="bold">Labelync</text>
   <text x="330" y="312.24799" fill="#31d4c4" font-size="32px" font-weight="bold">Wireless label printing from your browser</text>
  </g>
 </g>
</svg>
